<?xml version="1.0" encoding="UTF-8" standalone="no"?>
<svg
   xmlns:dc="http://purl.org/dc/elements/1.1/"
   xmlns:cc="http://creativecommons.org/ns#"
   xmlns:rdf="http://www.w3.org/1999/02/22-rdf-syntax-ns#"
   xmlns:svg="http://www.w3.org/2000/svg"
   xmlns="http://www.w3.org/2000/svg"
   xmlns:sodipodi="http://sodipodi.sourceforge.net/DTD/sodipodi-0.dtd"
   xmlns:inkscape="http://www.inkscape.org/namespaces/inkscape"
   inkscape:version="1.0 (4035a4fb49, 2020-05-01)"
   id="svg8"
   version="1.1"
   viewBox="0 0 146.63899 169.33334"
   height="640"
   width="554.22614"
   sodipodi:docname="hextec-logo.svg">
  <defs
     id="defs2" />
  <sodipodi:namedview
     inkscape:showpageshadow="false"
     showborder="false"
     showgrid="false"
     inkscape:document-rotation="0"
     inkscape:current-layer="layer1"
     inkscape:document-units="px"
     inkscape:cy="-331.4286"
     inkscape:cx="-125.74407"
     inkscape:zoom="0.35"
     inkscape:pageshadow="2"
     inkscape:pageopacity="0.0"
     borderopacity="1.0"
     bordercolor="#666666"
     pagecolor="#ffffff"
     id="base"
     units="px"
     inkscape:window-width="1274"
     inkscape:window-height="1009"
     inkscape:window-x="122"
     inkscape:window-y="0"
     inkscape:window-maximized="0" />
  <metadata
     id="metadata5">
    <rdf:RDF>
      <cc:Work
         rdf:about="">
        <dc:format>image/svg+xml</dc:format>
        <dc:type
           rdf:resource="http://purl.org/dc/dcmitype/StillImage" />
        <dc:title />
      </cc:Work>
    </rdf:RDF>
  </metadata>
  <g
     id="layer1"
     inkscape:groupmode="layer"
     inkscape:label="Layer 1"
     transform="translate(-139.10312,-235.85715)">
    <path
       d="m 212.42313,235.85715 -19.5431,11.28454 c 16.8877,9.72276 33.234,19.22612 47.89639,27.65549 v 55.31444 l 19.5462,-11.28435 v -55.32122 c -15.9667,-9.2185 -31.93339,-18.43028 -47.89949,-27.6489 z m -25.4202,14.67443 -47.8995,27.65229 v 22.57229 c 16.8736,-9.74969 33.255,-19.19091 47.8995,-27.65549 15.7203,9.07706 33.2103,19.17428 47.8995,27.65549 v -22.57229 c -15.966,-9.21849 -31.9334,-18.43366 -47.8995,-27.65229 z m 79.19299,16.36788 v 55.31104 c -16.6106,9.5936 -33.65949,19.43629 -47.90589,27.66234 6.5164,3.76307 13.0348,7.52448 19.5526,11.28775 15.96669,-9.21869 31.93219,-18.44039 47.89949,-27.65889 v -55.31783 z m -79.19299,12.98432 c -15.96671,9.21805 -31.9334,18.43501 -47.8995,27.65235 -7e-4,18.4409 0,36.88007 0,55.32103 l 19.5462,11.28116 c 6.8e-4,-19.48858 0,-38.39994 0,-55.31444 15.728,-9.08103 33.0996,-19.11213 47.8964,-27.65556 z m -2.9331,31.04237 -19.5501,11.28435 v 55.31783 c 15.9686,9.2192 31.9354,18.44295 47.9034,27.66215 l 19.5462,-11.28774 c -16.0179,-9.27745 -33.4515,-19.2793 -47.8995,-27.65895 z m 5.8669,29.35546 v 22.5689 c 15.9699,9.22054 31.936,18.4384 47.9059,27.65895 15.96669,-9.2185 31.93219,-18.43367 47.89949,-27.6523 v -22.57555 c -16.8761,9.74144 -33.2518,19.19853 -47.89949,27.65229 -16.6138,-9.58592 -33.6595,-19.42707 -47.9059,-27.65229 z"
       style="color:#000000;font-style:normal;font-variant:normal;font-weight:normal;font-stretch:normal;font-size:medium;line-height:normal;font-family:sans-serif;font-variant-ligatures:normal;font-variant-position:normal;font-variant-caps:normal;font-variant-numeric:normal;font-variant-alternates:normal;font-variant-east-asian:normal;font-feature-settings:normal;font-variation-settings:normal;text-indent:0;text-align:start;text-decoration:none;text-decoration-line:none;text-decoration-style:solid;text-decoration-color:#000000;letter-spacing:normal;word-spacing:normal;text-transform:none;writing-mode:lr-tb;direction:ltr;text-orientation:mixed;dominant-baseline:auto;baseline-shift:baseline;text-anchor:start;white-space:normal;shape-padding:0;shape-margin:0;inline-size:0;clip-rule:nonzero;display:inline;overflow:visible;visibility:visible;isolation:auto;mix-blend-mode:normal;color-interpolation:sRGB;color-interpolation-filters:linearRGB;solid-color:#000000;solid-opacity:1;vector-effect:none;fill:#ffffff;fill-opacity:1;fill-rule:nonzero;stroke:none;stroke-width:0.917242;stroke-linecap:butt;stroke-linejoin:miter;stroke-miterlimit:4;stroke-dasharray:none;stroke-dashoffset:0;stroke-opacity:1;color-rendering:auto;image-rendering:auto;shape-rendering:auto;text-rendering:auto;enable-background:accumulate;stop-color:#000000"
       id="path1737"
       inkscape:export-filename="C:\Users\Admin\Desktop\hextec_favicon_white.png"
       inkscape:export-xdpi="96"
       inkscape:export-ydpi="96" />
  </g>
</svg>
